<svg xmlns="http://www.w3.org/2000/svg" width="512" height="512" viewBox="0 0 866 866">
  <!-- Rounded white background -->
  <rect width="866" height="866" rx="120" ry="120" fill="white"/>

  <!-- Original image scaled up and centered -->
  <g transform="translate(-40,60) scale(1.15)">
    <path fill="#020202" d="M 412.5,71.5 C 501.398,67.8237 574.231,99.8237 631,167.5C 647.379,187.916 659.879,210.583 668.5,235.5C 654.599,233.23 640.599,231.73 626.5,231C 591.333,162.881 535.666,122.881 459.5,111C 387.436,103.684 326.102,125.684 275.5,177C 259.684,187.896 242.684,190.229 224.5,184C 223.549,183.282 223.383,182.449 224,181.5C 270.213,116.634 333.046,79.9676 412.5,71.5 Z"/>
    <path fill="#020202" d="M 412.5,138.5 C 484.413,134.218 541.913,160.552 585,217.5C 588.085,222 590.918,226.667 593.5,231.5C 580.442,233.843 567.442,236.51 554.5,239.5C 514.514,187.867 462.181,168.033 397.5,180C 368.488,187.501 343.821,202.167 323.5,224C 286.319,254.234 244.986,261.568 199.5,246C 197.126,245.152 195.126,243.819 193.5,242C 197.441,230.339 202.441,219.172 208.5,208.5C 238.949,221.593 267.616,218.426 294.5,199C 326.702,164.973 366.036,144.807 412.5,138.5 Z"/>
    <path fill="#020202" d="M 415.5,205.5 C 458.296,201.37 494.13,215.037 523,246.5C 523.667,247.167 523.667,247.833 523,248.5C 511.22,253.153 499.72,258.486 488.5,264.5C 452.155,235.851 415.488,235.351 378.5,263C 331.633,309.732 275.3,328.065 209.5,318C 199.684,315.963 190.018,313.463 180.5,310.5C 180.609,297.239 182.442,284.239 186,271.5C 233.737,290.517 279.57,286.683 323.5,260C 336.418,250.419 348.752,240.086 360.5,229C 377.04,216.771 395.373,208.938 415.5,205.5 Z"/>
    <path fill="#020202" d="M 599.5,260.5 C 626.116,259.412 652.449,261.579 678.5,267C 682.212,280.353 683.878,293.853 683.5,307.5C 599.652,285.126 526.985,304.293 465.5,365C 448.367,376.876 430.033,379.21 410.5,372C 407.827,370.999 405.493,369.499 403.5,367.5C 411.999,360.507 420.665,353.673 429.5,347C 475.395,297.189 532.062,268.356 599.5,260.5 Z"/>
    <path fill="#030303" d="M 425.5,271.5 C 438.581,270.813 450.581,273.979 461.5,281C 452.833,287.667 444.167,294.333 435.5,301C 369.396,370.591 288.729,397.925 193.5,383C 190.484,382.78 187.984,381.613 186,379.5C 183.253,366.53 181.753,353.53 181.5,340.5C 252.046,360.089 316.713,348.256 375.5,305C 385.5,296.333 395.5,287.667 405.5,279C 411.96,275.588 418.627,273.088 425.5,271.5 Z"/>
    <path fill="#020202" d="M 599.5,327.5 C 628.507,325.56 656.84,328.893 684.5,337.5C 684.524,350.853 682.524,363.853 678.5,376.5C 624.083,355.631 573.749,362.798 527.5,398C 491.85,437.326 448.183,450.66 396.5,438C 374.052,430.785 355.385,418.119 340.5,400C 352.589,394.79 364.589,389.29 376.5,383.5C 405.794,408.415 437.794,412.248 472.5,395C 484.046,387.127 494.713,378.127 504.5,368C 532.671,346.246 564.338,332.746 599.5,327.5 Z"/>
    <path fill="#020202" d="M 610.5,393.5 C 631.366,392.607 651.366,396.273 670.5,404.5C 667.906,416.733 663.239,428.4 656.5,439.5C 625.93,426.284 597.263,429.451 570.5,449C 522.906,497.665 465.239,516.998 397.5,507C 341.72,495.191 299.387,464.857 270.5,416C 283.894,413.657 297.227,411.324 310.5,409C 349.179,459.792 400.179,479.792 463.5,469C 485.558,463.879 505.558,454.546 523.5,441C 535.581,429.138 548.581,418.471 562.5,409C 577.666,400.72 593.666,395.553 610.5,393.5 Z"/>
    <path fill="#020202" d="M 196.5,412.5 C 210.351,415.029 224.351,416.695 238.5,417.5C 274.58,487.042 331.58,527.208 409.5,538C 479.961,543.077 539.961,520.743 589.5,471C 605.921,459.368 623.255,457.535 641.5,465.5C 593.407,533.729 527.407,570.562 443.5,576C 353.898,577.778 282.065,543.278 228,472.5C 214.621,454.077 204.121,434.077 196.5,412.5 Z"/>
  </g>
</svg>
